# xmcd CD database file
#
# Track frame offsets:
#	150
#	22532
#	40750
#	60330
#	80277
#	99677
#	118020
#	135297
#	156162
#	176692
#
# Disc length: 2641 seconds
#
# Revision: 0
# Processed by: cddbd v1.5PL3 Copyright (c) Steve Scherf et al.
# Submitted via: CDex 1.50beta9
#
DISCID=6b0a4f0a
DTITLE=BENNIE K - essence
DYEAR=2003
DGENRE=Hip-Hop
TTITLE0=CRYSTAL
TTITLE1=ALRIGHT
TTITLE2=手紙
TTITLE3=Better Days
TTITLE4=HIDE
TTITLE5=MUSIC
TTITLE6=ひなだん
TTITLE7=Sunday noon
TTITLE8=なごり夏
TTITLE9=MY WAY
EXTD=YEAR: 2003
EXTT0=
EXTT1=
EXTT2=
EXTT3=
EXTT4=
EXTT5=
EXTT6=
EXTT7=
EXTT8=
EXTT9=
PLAYORDER=
